<svg width="51" height="51" viewBox="0 0 51 51" fill="none" xmlns="http://www.w3.org/2000/svg">
<path d="M25.064 3.3335C13.0327 3.3335 3.18896 13.1772 3.18896 25.2085C3.18896 37.2397 13.0327 47.0835 25.064 47.0835C37.0952 47.0835 46.939 37.2397 46.939 25.2085C46.939 13.1772 37.0952 3.3335 25.064 3.3335ZM30.8452 26.3022L23.0327 34.1147C22.7202 34.4272 22.4077 34.5835 21.939 34.5835C21.4702 34.5835 21.1577 34.4272 20.8452 34.1147C20.2202 33.4897 20.2202 32.5522 20.8452 31.9272L27.564 25.2085L20.8452 18.4897C20.2202 17.8647 20.2202 16.9272 20.8452 16.3022C21.4702 15.6772 22.4077 15.6772 23.0327 16.3022L30.8452 24.1147C31.4702 24.7397 31.4702 25.6772 30.8452 26.3022Z" fill="black"/>
</svg>
