<svg width="248" height="90" viewBox="0 0 248 90" fill="none" xmlns="http://www.w3.org/2000/svg">
<g clip-path="url(#clip0_1373_7329)">
<path d="M166.132 89.9998C166.132 89.7319 165.999 89.598 165.999 89.3301C165.866 88.7944 165.733 88.2587 165.467 87.723C165.2 87.0534 164.535 86.5176 163.736 86.2498C163.07 85.9819 162.405 85.848 161.606 85.7141C161.473 85.7141 161.473 85.7141 161.34 85.7141C161.606 85.7141 161.739 85.5801 162.005 85.5801C162.538 85.4462 163.07 85.3123 163.603 85.1784C164.535 84.9105 165.067 84.2409 165.467 83.4373C165.733 82.7676 165.866 82.098 165.999 81.4284C165.999 81.4284 165.999 81.4284 165.999 81.2944C166.132 81.4284 166.132 81.5623 166.132 81.6962C166.265 82.3659 166.398 83.0355 166.665 83.5712C166.931 84.3748 167.596 84.7766 168.395 85.1784C169.061 85.4462 169.726 85.5801 170.525 85.7141C170.658 85.7141 170.658 85.7141 170.791 85.848C170.658 85.848 170.658 85.848 170.525 85.9819C169.859 86.1159 169.327 86.2498 168.661 86.3837C167.596 86.6516 166.931 87.3212 166.665 88.2587C166.531 88.7944 166.398 89.3301 166.265 89.8659C166.265 89.7319 166.265 89.8659 166.132 89.9998Z" fill="url(#paint0_linear_1373_7329)"/>
<path d="M242.143 11.1159C242.143 10.8481 242.01 10.5802 242.01 10.3124C241.876 9.64272 241.743 8.83915 241.344 8.1695C240.945 7.232 240.279 6.69629 239.214 6.2945C238.415 6.02665 237.484 5.89272 236.552 5.62486C236.419 5.62486 236.285 5.62486 236.152 5.62486C236.419 5.62486 236.685 5.49093 236.951 5.49093C237.617 5.357 238.282 5.22308 238.948 4.95522C240.146 4.55343 240.811 3.88379 241.211 2.81236C241.477 2.00879 241.743 1.20522 241.876 0.267718C241.876 0.267718 241.876 0.267718 241.876 0.133789C242.01 0.267718 242.01 0.401646 242.01 0.535575C242.143 1.33915 242.409 2.14272 242.675 2.94629C243.075 3.88379 243.74 4.55343 244.805 4.95522C245.604 5.22308 246.536 5.357 247.467 5.62486C247.601 5.62486 247.734 5.62486 247.734 5.75879C247.601 5.89272 247.467 5.89272 247.467 5.89272C246.669 6.02665 245.87 6.16058 245.204 6.42843C243.873 6.83022 243.075 7.63379 242.675 8.83915C242.409 9.50879 242.276 10.1784 242.143 10.8481C242.276 10.8481 242.276 10.982 242.143 11.1159Z" fill="url(#paint1_linear_1373_7329)"/>
<path d="M200.742 89.9999C225.502 90.1338 245.603 70.1785 245.87 45.4017C246.003 20.491 226.168 0.26777 201.541 -8.71389e-05C184.369 -0.134016 169.459 9.50884 161.872 23.5713C168.528 15.8035 178.645 10.9821 190.093 10.9821C209.928 11.116 225.902 26.3838 225.769 45.1338C225.636 63.8839 209.395 78.8839 189.56 78.7499C178.245 78.616 168.128 73.5267 161.605 65.7588C168.794 80.0892 183.57 89.866 200.742 89.9999Z" fill="url(#paint2_linear_1373_7329)"/>
<path d="M14.2437 84.5087L15.708 77.1426H0L0.133119 75.6694H21.299L19.5684 84.5087H14.2437ZM3.72732 89.9998L7.05529 79.0176H12.5132L9.18519 89.9998H3.72732Z" fill="white"/>
<path d="M23.8281 89.9997L26.2243 77.0086H31.2828L28.8866 89.9997H23.8281ZM33.6789 89.9997L34.877 75.2676H40.3348L39.1368 88.5265H45.3933L45.2602 89.9997H33.6789Z" fill="white"/>
<path d="M49.2539 81.696L49.387 80.2228H71.0854L70.8191 81.696H63.4976L60.7021 89.8657H55.2442L58.0397 81.696H49.2539ZM50.0526 76.8746L50.1857 75.4014H71.0854L70.9522 76.8746H50.0526Z" fill="white"/>
<path d="M74.1465 89.1962L74.4127 86.5176L94.7799 87.3212L94.5136 89.9998L74.1465 89.1962ZM75.6108 77.1426L75.7439 75.6694L95.3123 76.473L95.1792 77.9462L75.6108 77.1426ZM75.877 82.2319L76.0101 80.7587L93.9812 81.5623L93.848 83.0355L75.877 82.2319Z" fill="white"/>
<path d="M98.5078 89.9998L112.885 77.1426H99.7059L99.839 75.6694H120.739L112.752 82.7676L119.274 89.9998H113.417L109.557 85.7141L104.764 89.9998H98.5078Z" fill="white"/>
<path d="M0.265726 58.1249L16.24 33.8839C17.0387 32.8124 18.1036 32.5446 19.4348 32.4106C19.8342 32.4106 20.2335 32.4106 20.6329 32.4106C20.6329 32.4106 20.766 32.4106 20.8991 32.4106C21.0322 32.4106 21.1654 32.4106 21.4316 32.4106C21.9641 32.4106 22.6297 32.4106 23.4284 32.4106C23.4284 32.4106 24.7596 32.4106 25.292 33.8839L33.146 58.1249C33.2791 58.5267 33.146 59.0624 32.8798 59.4642C32.6136 59.866 32.2142 60.1339 31.8148 60.1339H25.5583C25.1589 60.1339 24.7596 59.866 24.6264 59.4642L23.9608 57.1874H10.649L10.1165 57.991L9.05156 59.4642C8.78532 59.866 8.25284 60.1339 7.72037 60.1339H1.06444C0.665082 60.1339 0.265726 59.866 -0.000511292 59.4642C-0.13363 58.9285 -0.000511297 58.5267 0.265726 58.1249ZM14.9088 50.3571H21.8309L19.5679 43.1249L14.9088 50.3571Z" fill="white"/>
<path d="M36.7408 59.9999C35.9421 59.9999 35.2765 59.3303 35.4096 58.5267L39.9357 33.8839C40.0688 33.0803 40.8675 32.4106 41.7993 32.4106H61.3678C65.3613 32.4106 68.0237 35.6249 67.3581 39.6428L66.2931 45.9374C65.7607 48.616 63.7639 51.0267 61.3678 52.2321C61.2346 52.366 61.1015 52.4999 61.2346 52.6339L64.4295 58.2589C64.8288 59.0624 64.2964 59.9999 63.4977 59.9999C60.8353 59.9999 59.1047 60.1339 58.0398 60.1339C56.1761 60.1339 55.5105 60.1339 55.2443 59.3303L52.3157 53.5714C52.1826 53.3035 51.9163 53.1696 51.6501 53.1696H45.3935C45.2604 53.1696 44.9942 53.3035 44.9942 53.4374L44.0623 58.5267C43.9292 59.3303 43.1305 59.9999 42.1987 59.9999H36.7408ZM46.0591 45.8035C46.0591 45.9374 46.1922 46.0714 46.3254 46.0714H56.4424C57.2411 46.0714 57.9067 45.4017 58.0398 44.7321L58.8385 40.5803C58.9716 39.7767 58.4391 39.241 57.6404 39.241H47.5234C47.3903 39.241 47.1241 39.3749 47.1241 39.5089L46.0591 45.8035Z" fill="white"/>
<path d="M97.7086 33.8839L97.043 37.9018C96.9099 38.7053 96.1112 39.375 95.1793 39.375H87.5916C87.4585 39.375 87.1922 39.5089 87.1922 39.6428L83.8643 58.3928C83.7311 59.1964 82.9324 59.8661 82.0006 59.8661H76.809C76.0103 59.8661 75.3447 59.1964 75.4778 58.3928L78.8057 39.6428C78.8057 39.5089 78.6726 39.375 78.5395 39.375H70.9517C70.153 39.375 69.4874 38.7053 69.6206 37.9018L70.2862 33.8839C70.4193 33.0803 71.218 32.4107 72.1498 32.4107H96.2443C97.3092 32.2768 97.8417 33.0803 97.7086 33.8839Z" fill="white"/>
<path d="M95.8448 58.5267L100.238 33.8839C100.371 33.0803 101.17 32.4106 102.101 32.4106H125.264C125.796 32.4106 126.063 32.8124 126.063 33.3481L125.131 38.5714C124.998 39.1071 124.598 39.5089 124.066 39.5089H107.825C107.692 39.5089 107.426 39.6428 107.426 39.7767L106.894 42.5892C106.894 42.7231 107.027 42.8571 107.16 42.8571H120.072C120.605 42.8571 120.871 43.2589 120.871 43.7946L120.072 48.616C119.939 49.1517 119.54 49.5535 119.007 49.5535H106.095C105.962 49.5535 105.696 49.6874 105.696 49.8214L105.163 52.4999C105.163 52.6339 105.296 52.7678 105.429 52.7678H121.537C122.069 52.7678 122.335 53.1696 122.335 53.7053L121.404 59.0624C121.27 59.5981 120.871 59.9999 120.339 59.9999H97.0428C96.2441 59.9999 95.5785 59.3303 95.8448 58.5267Z" fill="white"/>
<path d="M137.245 32.4106C137.91 32.4106 138.31 32.8124 138.443 33.3481L143.102 50.491C143.235 50.7589 143.634 50.8928 143.768 50.6249L155.216 33.3481C155.615 32.8124 156.148 32.4106 156.813 32.4106H162.804C163.602 32.4106 164.268 33.0803 164.135 33.8839L159.742 58.5267C159.609 59.3303 158.81 59.9999 157.878 59.9999H153.219C152.42 59.9999 151.755 59.3303 151.888 58.5267L153.618 48.7499L146.696 59.1964C146.297 59.7321 145.764 60.1339 145.099 60.1339H138.842C138.177 60.1339 137.777 59.7321 137.644 59.1964L134.449 48.7499L132.719 58.5267C132.586 59.3303 131.787 59.9999 130.855 59.9999H126.196C125.397 59.9999 124.732 59.3303 124.865 58.5267L129.258 33.8839C129.391 33.0803 130.189 32.4106 131.121 32.4106H137.245Z" fill="white"/>
<path d="M175.582 32.2769C176.381 32.2769 177.047 32.9465 176.914 33.7501L172.521 58.3929C172.388 59.1965 171.589 59.8661 170.657 59.8661H165.465C164.667 59.8661 164.001 59.1965 164.134 58.3929L168.527 33.7501C168.66 32.9465 169.459 32.2769 170.391 32.2769H175.582Z" fill="white"/>
<path d="M178.245 59.9999C177.446 59.9999 176.78 59.3303 176.914 58.5267L177.712 54.3749C177.845 53.5714 178.644 52.9017 179.576 52.9017H196.881C197.414 52.9017 197.946 52.4999 197.946 51.9642L198.213 50.6249C198.346 50.0892 197.946 49.6874 197.414 49.6874H185.034C181.04 49.6874 178.378 46.4731 179.043 42.4553L179.576 39.6428C180.241 35.6249 184.102 32.4106 188.229 32.4106H206.333C207.131 32.4106 207.797 33.0803 207.664 33.8839L206.998 37.9017C206.865 38.7053 206.067 39.3749 205.135 39.3749H188.362C187.829 39.3749 187.297 39.7767 187.297 40.3124L187.031 42.0535C186.897 42.5892 187.297 42.991 187.829 42.991H200.209C204.203 42.991 206.865 46.2053 206.2 50.2231L205.8 52.7678C205.135 56.7856 201.274 59.9999 197.148 59.9999H196.349H178.245Z" fill="white"/>
</g>
<defs>
<linearGradient id="paint0_linear_1373_7329" x1="159.371" y1="79.9161" x2="171.827" y2="94.1433" gradientUnits="userSpaceOnUse">
<stop stop-color="#FF00BE"/>
<stop offset="0.295" stop-color="#CA58FF"/>
<stop offset="0.61" stop-color="#3AA1FF"/>
<stop offset="0.89" stop-color="#3FEAD7"/>
</linearGradient>
<linearGradient id="paint1_linear_1373_7329" x1="233.74" y1="-1.60505" x2="249.507" y2="15.8882" gradientUnits="userSpaceOnUse">
<stop stop-color="#FF00BE"/>
<stop offset="0.295" stop-color="#CA58FF"/>
<stop offset="0.61" stop-color="#3AA1FF"/>
<stop offset="0.89" stop-color="#3FEAD7"/>
</linearGradient>
<linearGradient id="paint2_linear_1373_7329" x1="144.05" y1="-14.2518" x2="273.955" y2="113.699" gradientUnits="userSpaceOnUse">
<stop stop-color="#FF00BE"/>
<stop offset="0.295" stop-color="#CA58FF"/>
<stop offset="0.61" stop-color="#3AA1FF"/>
<stop offset="0.89" stop-color="#3FEAD7"/>
</linearGradient>
<clipPath id="clip0_1373_7329">
<rect width="248" height="90" fill="white"/>
</clipPath>
</defs>
</svg>
