<svg width="399" height="52" viewBox="0 0 399 52" fill="none" xmlns="http://www.w3.org/2000/svg">
<path d="M8 1H7V1.84415e-07H8V1ZM398 1V1.84415e-07H399V1H398ZM8.70711 51.7071C8.31658 52.0976 7.68342 52.0976 7.29289 51.7071L0.928933 45.3431C0.538408 44.9526 0.538408 44.3195 0.928933 43.9289C1.31946 43.5384 1.95262 43.5384 2.34315 43.9289L8 49.5858L13.6569 43.9289C14.0474 43.5384 14.6805 43.5384 15.0711 43.9289C15.4616 44.3195 15.4616 44.9526 15.0711 45.3431L8.70711 51.7071ZM8 1.84415e-07L398 1.84415e-07V2L8 2V1.84415e-07ZM399 1V51H397V1H399ZM9 1L9 51H7L7 1H9Z" fill="#FF9900"/>
</svg>
