<svg width="399" height="26" viewBox="0 0 399 26" fill="none" xmlns="http://www.w3.org/2000/svg">
<path d="M8 0.999998H7V-2.35438e-06H8V0.999998ZM398 0.999998V-2.35438e-06H399V0.999998H398ZM8.70711 25.2071C8.31658 25.5976 7.68342 25.5976 7.29289 25.2071L0.928933 18.8431C0.538408 18.4526 0.538408 17.8195 0.928933 17.4289C1.31946 17.0384 1.95262 17.0384 2.34315 17.4289L8 23.0858L13.6569 17.4289C14.0474 17.0384 14.6805 17.0384 15.0711 17.4289C15.4616 17.8195 15.4616 18.4526 15.0711 18.8431L8.70711 25.2071ZM8 -2.35438e-06L398 -2.35438e-06V2L8 2V-2.35438e-06ZM399 0.999998V24.5H397V0.999998H399ZM9 0.999998V24.5L7 24.5L7 0.999998H9Z" fill="#FF9900"/>
</svg>
