<svg width="560" height="435" viewBox="0 0 560 435" fill="none" xmlns="http://www.w3.org/2000/svg">
<mask id="mask0_609_606" style="mask-type:alpha" maskUnits="userSpaceOnUse" x="0" y="0" width="560" height="435">
<rect width="560" height="435" fill="black"/>
</mask>
<g mask="url(#mask0_609_606)">
<path d="M538.083 9H417.069L391.801 52.039L169.852 50.6727L147.999 9H23.8438C18.1072 9 13.4634 13.6455 13.4634 19.384V412.616C13.4634 418.355 18.1072 423 23.8438 423H538.083C543.819 423 548.463 418.355 548.463 412.616V19.384C548.463 13.6455 543.819 9 538.083 9Z" fill="black" fill-opacity="0.8"/>
<g filter="url(#filter0_d_609_606)">
<path d="M554.61 133.062C554.61 130.192 552.971 127.596 550.102 125.82L548.737 125V18.8375C548.737 13.3722 544.366 9 538.903 9H415.294C408.328 9 402.045 26.8988 399.587 33.4571L395.353 42.7481C393.85 46.1639 390.436 48.35 386.611 48.35H175.862C172.174 48.35 168.76 46.1639 167.121 42.7481L162.886 33.4571C160.428 26.8988 154.282 9 147.316 9H23.8438C18.3804 9 14.0097 13.3722 14.0097 18.8375V125.137L12.6439 125.957C9.63901 127.596 8 130.329 8 133.062V185.938C8 188.808 9.63901 191.404 12.5073 193.18L13.8731 194V414.933C13.8731 415.206 13.8731 415.343 13.8731 415.616C13.8731 415.889 13.8731 416.026 13.8731 416.299C13.8731 421.764 18.2438 426.137 23.7072 426.137C23.9803 426.137 24.1169 426.137 24.3901 426.137C24.6633 426.137 24.7998 426.137 25.073 426.137H175.589H388.25H539.176C544.639 426.137 549.01 421.764 549.01 416.299V194L550.376 193.18C553.244 191.404 554.883 188.808 554.883 185.938L554.61 133.062ZM542.044 120.902V198.098V406.872C541.088 406.598 540.132 406.462 539.039 406.462C533.576 406.462 529.205 410.834 529.205 416.299C529.205 417.392 529.342 418.349 529.615 419.305H383.88L383.06 417.939C381.284 415.069 378.689 413.43 375.821 413.43H187.745C184.876 413.43 182.281 415.069 180.506 417.939L179.686 419.305H32.9949C33.2681 418.349 33.4046 417.392 33.4046 416.299C33.4046 410.834 29.034 406.462 23.5706 406.462C22.4779 406.462 21.5218 406.598 20.5657 406.872V28.1285C21.5218 28.4017 22.4779 28.5384 23.5706 28.5384C29.034 28.5384 33.4046 24.1661 33.4046 18.7009C33.4046 17.6078 33.2681 16.6514 32.9949 15.695H147.316C151.413 15.695 155.101 31.9542 156.604 35.7798L156.74 36.0531L156.877 36.3264L161.111 45.6173C163.706 51.4925 169.579 55.1816 175.998 55.1816H386.884C393.304 55.1816 399.177 51.4925 401.772 45.6173L406.006 36.3264L406.143 36.0531L406.279 35.7798C407.782 31.9542 411.469 15.695 415.567 15.695H529.751C529.478 16.6514 529.342 17.6078 529.342 18.7009C529.342 24.1661 533.712 28.5384 539.176 28.5384C540.268 28.5384 541.224 28.4017 542.181 28.1285V120.902H542.044Z" fill="#FF00D6"/>
</g>
</g>
<defs>
<filter id="filter0_d_609_606" x="-2" y="-1" width="566.883" height="437.137" filterUnits="userSpaceOnUse" color-interpolation-filters="sRGB">
<feFlood flood-opacity="0" result="BackgroundImageFix"/>
<feColorMatrix in="SourceAlpha" type="matrix" values="0 0 0 0 0 0 0 0 0 0 0 0 0 0 0 0 0 0 127 0" result="hardAlpha"/>
<feOffset/>
<feGaussianBlur stdDeviation="5"/>
<feComposite in2="hardAlpha" operator="out"/>
<feColorMatrix type="matrix" values="0 0 0 0 1 0 0 0 0 0 0 0 0 0 0.84 0 0 0 1 0"/>
<feBlend mode="normal" in2="BackgroundImageFix" result="effect1_dropShadow_609_606"/>
<feBlend mode="normal" in="SourceGraphic" in2="effect1_dropShadow_609_606" result="shape"/>
</filter>
</defs>
</svg>
