<svg width="50" height="50" viewBox="0 0 50 50" fill="none" xmlns="http://www.w3.org/2000/svg">
<path d="M35.625 42.5C35.625 43.875 34.5 45 33.125 45H16.875C15.5 45 14.375 43.875 14.375 42.5V8.75C14.375 7.375 15.5 6.25 16.875 6.25H33.125C34.5 6.25 35.625 7.375 35.625 8.75V42.5Z" fill="#E1E0A6"/>
<path d="M33.125 45.625H16.875C15.125 45.625 13.75 44.25 13.75 42.5V8.75C13.75 7 15.125 5.625 16.875 5.625H33.125C34.875 5.625 36.25 7 36.25 8.75V42.5C36.25 44.25 34.875 45.625 33.125 45.625ZM16.875 6.875C15.8125 6.875 15 7.6875 15 8.75V42.5C15 43.5625 15.8125 44.375 16.875 44.375H33.125C34.1875 44.375 35 43.5625 35 42.5V8.75C35 7.6875 34.1875 6.875 33.125 6.875H16.875Z" fill="#231C1C"/>
<path d="M33.75 36.375C33.75 37 33.1875 37.5 32.5 37.5H17.5C16.8125 37.5 16.25 37 16.25 36.375V12.375C16.25 11.75 16.8125 11.25 17.5 11.25H32.5C33.1875 11.25 33.75 11.75 33.75 12.375V36.375Z" fill="#F2E5CA"/>
<path d="M32.5 38.125H17.5C16.4375 38.125 15.625 37.3125 15.625 36.375V12.375C15.625 11.375 16.4375 10.625 17.5 10.625H32.5C33.5625 10.625 34.375 11.4375 34.375 12.375V36.375C34.375 37.3125 33.5625 38.125 32.5 38.125ZM17.5 11.875C17.125 11.875 16.875 12.125 16.875 12.375V36.375C16.875 36.625 17.125 36.875 17.5 36.875H32.5C32.875 36.875 33.125 36.625 33.125 36.375V12.375C33.125 12.125 32.875 11.875 32.5 11.875H17.5Z" fill="#231C1C"/>
<path d="M23.125 41.25C23.125 41.7473 23.3225 42.2242 23.6742 42.5758C24.0258 42.9275 24.5027 43.125 25 43.125C25.4973 43.125 25.9742 42.9275 26.3258 42.5758C26.6775 42.2242 26.875 41.7473 26.875 41.25C26.875 40.7527 26.6775 40.2758 26.3258 39.9242C25.9742 39.5725 25.4973 39.375 25 39.375C24.5027 39.375 24.0258 39.5725 23.6742 39.9242C23.3225 40.2758 23.125 40.7527 23.125 41.25Z" fill="#D4594C"/>
<path d="M25 43.75C23.625 43.75 22.5 42.625 22.5 41.25C22.5 39.875 23.625 38.75 25 38.75C26.375 38.75 27.5 39.875 27.5 41.25C27.5 42.625 26.375 43.75 25 43.75ZM25 40C24.3125 40 23.75 40.5625 23.75 41.25C23.75 41.9375 24.3125 42.5 25 42.5C25.6875 42.5 26.25 41.9375 26.25 41.25C26.25 40.5625 25.6875 40 25 40Z" fill="#231C1C"/>
<path d="M22.5 8.125H27.5V9.375H22.5V8.125Z" fill="#231C1C"/>
</svg>
