<svg width="50" height="50" viewBox="0 0 50 50" fill="none" xmlns="http://www.w3.org/2000/svg">
<g clip-path="url(#clip0_597_151)">
<path d="M16.4214 22.3127L33.7471 34.8916L49.2288 13.5677L31.9031 0.988829L16.4214 22.3127Z" fill="#CDD4D5"/>
<path d="M41.358 16.769C41.2007 16.769 41.0421 16.7211 40.9051 16.6216L31.5759 9.84756C31.2309 9.59697 31.1541 9.11426 31.4047 8.76914C31.6554 8.42412 32.138 8.34755 32.483 8.59804L41.8122 15.3721C42.1573 15.6227 42.234 16.1054 41.9834 16.4504C41.8324 16.6584 41.5968 16.769 41.358 16.769Z" fill="#F0353D"/>
<path d="M37.4875 22.1C37.3301 22.1 37.1715 22.0522 37.0345 21.9526L27.7053 15.1786C27.3602 14.928 27.2835 14.4453 27.5341 14.1002C27.7848 13.7552 28.2674 13.6786 28.6125 13.9291L37.9418 20.7031C38.2868 20.9537 38.3635 21.4364 38.1129 21.7816C37.9617 21.9895 37.7261 22.1 37.4875 22.1Z" fill="#F0353D"/>
<path d="M33.6163 27.4311C33.4589 27.4311 33.3003 27.3833 33.1633 27.2837L23.8341 20.5097C23.4891 20.2591 23.4124 19.7764 23.663 19.4313C23.9135 19.0863 24.3962 19.0096 24.7414 19.2602L34.0706 26.0342C34.4157 26.2848 34.4923 26.7675 34.2418 27.1127C34.0907 27.3206 33.8551 27.4311 33.6163 27.4311Z" fill="#F0353D"/>
<path d="M4.90255 33.8877L26.0474 30.5327L21.9181 4.50834L0.773333 7.86334L4.90255 33.8877Z" fill="#E6EAEA"/>
<path d="M6.68377 14.3669C6.31072 14.3669 5.9826 14.0959 5.92224 13.7157C5.85545 13.2946 6.14265 12.899 6.56375 12.8322L17.9504 11.0254C18.3715 10.9581 18.7671 11.2458 18.8339 11.6669C18.9008 12.088 18.6135 12.4836 18.1924 12.5504L6.80564 14.3571C6.76463 14.3638 6.72391 14.3669 6.68377 14.3669Z" fill="#F0353D"/>
<path d="M7.716 20.8737C7.34295 20.8737 7.01482 20.6027 6.95447 20.2225C6.88767 19.8014 7.17488 19.4058 7.59598 19.339L18.9826 17.5322C19.4033 17.465 19.7992 17.7526 19.8661 18.1737C19.9329 18.5948 19.6457 18.9904 19.2246 19.0572L7.83807 20.864C7.79705 20.8705 7.75633 20.8737 7.716 20.8737Z" fill="#F0353D"/>
<path d="M8.74871 27.3805C8.37566 27.3805 8.04754 27.1095 7.98719 26.7293C7.92039 26.3082 8.2076 25.9126 8.62869 25.8458L20.0153 24.039C20.4362 23.972 20.8319 24.2594 20.8987 24.6805C20.9655 25.1016 20.6783 25.4972 20.2572 25.564L8.87068 27.3708C8.82976 27.3773 8.78894 27.3805 8.74871 27.3805Z" fill="#F0353D"/>
<path d="M32.0656 15.8125H10.6543V42.1649H32.0656V15.8125Z" fill="#E6EAEA"/>
<path d="M21.36 15.8125H10.6543V42.1649H21.36V15.8125Z" fill="#CDD4D5"/>
<path d="M27.1244 23.1721H15.5953C15.1689 23.1721 14.8232 22.8264 14.8232 22.4C14.8232 21.9736 15.1689 21.6279 15.5953 21.6279H27.1244C27.5509 21.6279 27.8965 21.9736 27.8965 22.4C27.8965 22.8264 27.5509 23.1721 27.1244 23.1721Z" fill="#F0353D"/>
<path d="M27.1244 29.76H15.5953C15.1689 29.76 14.8232 29.4143 14.8232 28.9879C14.8232 28.5615 15.1689 28.2158 15.5953 28.2158H27.1244C27.5509 28.2158 27.8965 28.5615 27.8965 28.9879C27.8965 29.4144 27.5509 29.76 27.1244 29.76Z" fill="#F0353D"/>
<path d="M27.1244 36.3483H15.5953C15.1689 36.3483 14.8232 36.0026 14.8232 35.5763C14.8232 35.1499 15.1689 34.8042 15.5953 34.8042H27.1244C27.5509 34.8042 27.8965 35.1499 27.8965 35.5763C27.8965 36.0026 27.5509 36.3483 27.1244 36.3483Z" fill="#F0353D"/>
<path d="M37.0066 41.2893C36.809 41.2893 36.6114 41.2139 36.4606 41.0631L33.1665 37.7691C32.8651 37.4676 32.8651 36.9787 33.1665 36.6773C33.4681 36.3758 33.9569 36.3758 34.2584 36.6773L37.5525 39.9713C37.8539 40.2728 37.8539 40.7617 37.5525 41.0631C37.4018 41.2139 37.2041 41.2893 37.0066 41.2893Z" fill="#365558"/>
<path d="M27.9478 40.5176C32.9507 40.5176 37.0064 36.4619 37.0064 31.459C37.0064 26.4561 32.9507 22.4004 27.9478 22.4004C22.9448 22.4004 18.8892 26.4561 18.8892 31.459C18.8892 36.4619 22.9448 40.5176 27.9478 40.5176Z" fill="#4ACFD9"/>
<path d="M27.9477 37.2235C31.1313 37.2235 33.7122 34.6426 33.7122 31.4589C33.7122 28.2752 31.1313 25.6943 27.9477 25.6943C24.764 25.6943 22.1831 28.2752 22.1831 31.4589C22.1831 34.6426 24.764 37.2235 27.9477 37.2235Z" fill="#E6EAEA"/>
<path d="M43.1708 49.0109L45.5 46.6816L38.5124 39.694L36.1832 42.0233L43.1708 49.0109Z" fill="#FF8C29"/>
<path d="M27.5363 34.7015C27.3387 34.7015 27.141 34.6261 26.9903 34.4753C26.6888 34.1739 26.6888 33.685 26.9903 33.3835L29.0491 31.3247C29.3506 31.0233 29.8394 31.0233 30.1409 31.3247C30.4424 31.6262 30.4424 32.1151 30.1409 32.4165L28.0822 34.4753C27.9315 34.6261 27.7338 34.7015 27.5363 34.7015Z" fill="#0295AA"/>
<path d="M26.507 31.6134C26.3094 31.6134 26.1117 31.538 25.961 31.3872C25.6595 31.0858 25.6595 30.5969 25.961 30.2954L28.2256 28.0308C28.5272 27.7293 29.0159 27.7293 29.3175 28.0308C29.619 28.3323 29.619 28.8211 29.3175 29.1226L27.0529 31.3872C26.9021 31.538 26.7044 31.6134 26.507 31.6134Z" fill="#0295AA"/>
<path d="M49.6814 12.9444L32.3557 0.364125C32.1901 0.24391 31.9836 0.194105 31.7811 0.22643C31.5789 0.258559 31.3976 0.369594 31.2773 0.535219L23.7215 10.9413L22.6812 4.38572C22.6491 4.18347 22.538 4.00232 22.3723 3.88191C22.2066 3.76159 21.9997 3.71218 21.7977 3.74421L0.651152 7.10008C0.230057 7.16687 -0.0571506 7.56248 0.00964642 7.98348L4.13964 34.0102C4.17176 34.2124 4.2828 34.3937 4.44842 34.514C4.58114 34.6104 4.74003 34.6613 4.90204 34.6613C4.94227 34.6613 4.9827 34.658 5.02304 34.6517L9.88213 33.8806V42.1644C9.88213 42.5908 10.2278 42.9365 10.6542 42.9365H32.0655C32.4919 42.9365 32.8375 42.5908 32.8375 42.1644V39.9873C33.5897 39.5553 34.2819 39.0273 34.8985 38.4108C34.8988 38.4105 34.899 38.4103 34.8993 38.4101C36.756 36.5533 37.7786 34.0846 37.7786 31.4588C37.7786 31.2056 37.7681 30.9491 37.7482 30.6932L49.8526 14.0228C50.1032 13.6776 50.0265 13.1949 49.6814 12.9444ZM1.65565 8.50408L21.2774 5.39041L22.4386 12.7083L20.7455 15.0399H10.6542C10.2278 15.0399 9.88213 15.3856 9.88213 15.812V19.6354V26.3059V32.3172L5.54345 33.0057L1.65565 8.50408ZM11.4263 41.3924V32.9765V26.306V19.6355V16.5843H21.1377C21.1379 16.5843 21.1381 16.5844 21.1383 16.5844C21.1386 16.5844 21.1389 16.5843 21.1391 16.5843H23.7125H29.8912H31.2933V17.3909V22.2131C30.2262 21.825 29.1056 21.6283 27.9478 21.6283C25.0335 21.6283 22.2868 22.9106 20.4121 25.1464C19.5154 26.2158 18.8683 27.4378 18.4888 28.7782C18.2421 29.6497 18.1171 30.5517 18.1171 31.459C18.1171 33.0321 18.4778 34.5352 19.189 35.9269C19.1892 35.9273 19.1893 35.9276 19.1895 35.9281C20.8801 39.2353 24.2362 41.2897 27.9477 41.2897C29.1063 41.2897 30.2269 41.0933 31.2932 40.7059V41.3926L11.4263 41.3924ZM33.8075 37.3183L33.8072 37.3186C33.1912 37.9346 32.4869 38.4471 31.7141 38.8421C30.5417 39.4414 29.2746 39.7454 27.948 39.7454C24.8192 39.7454 21.99 38.0132 20.5646 35.2249C20.5645 35.2247 20.5644 35.2245 20.5643 35.2243C19.9652 34.0522 19.6614 32.7853 19.6614 31.4588C19.6614 30.6937 19.7668 29.9331 19.9748 29.1986C20.2945 28.0694 20.8399 27.0397 21.5957 26.1383C23.1763 24.2534 25.4916 23.1723 27.9481 23.1723C29.2732 23.1723 30.5404 23.4766 31.7141 24.0769C34.2135 25.3551 35.8853 27.7776 36.1856 30.5572C36.1857 30.5576 36.1858 30.5582 36.1858 30.5588C36.2181 30.859 36.2346 31.1617 36.2346 31.4588C36.2345 33.6723 35.3726 35.7531 33.8075 37.3183ZM37.3576 28.6029C36.6386 26.2211 35.0351 24.1911 32.8375 22.9313V17.3908V15.8121C32.8375 15.3857 32.4919 15.04 32.0655 15.04H29.8913H23.7127H22.6537L23.8758 13.357C23.8758 13.357 23.876 13.3568 23.8761 13.3566L32.0733 2.06725L48.1496 13.7401L37.3576 28.6029Z" fill="black"/>
<path d="M27.9478 24.9224C24.3435 24.9224 21.4111 27.8547 21.4111 31.459C21.4111 35.0633 24.3435 37.9956 27.9478 37.9956C31.5521 37.9956 34.4844 35.0633 34.4844 31.459C34.4844 27.8547 31.5521 24.9224 27.9478 24.9224ZM27.9478 36.4515C25.1948 36.4515 22.9553 34.2118 22.9553 31.459C22.9553 28.7062 25.1949 26.4665 27.9478 26.4665C30.7007 26.4665 32.9403 28.7062 32.9403 31.459C32.9403 34.2118 30.7006 36.4515 27.9478 36.4515Z" fill="black"/>
<path d="M39.0584 39.148C38.9136 39.0032 38.7172 38.9219 38.5124 38.9219C38.3076 38.9219 38.1114 39.0032 37.9664 39.148L35.6372 41.4773C35.3358 41.7787 35.3358 42.2676 35.6372 42.5691L42.6249 49.5569C42.7757 49.7076 42.9733 49.783 43.1709 49.783C43.3685 49.783 43.5662 49.7076 43.7169 49.5569L46.0462 47.2276C46.191 47.0828 46.2723 46.8864 46.2723 46.6817C46.2723 46.4769 46.191 46.2805 46.0462 46.1358L39.0584 39.148ZM43.1709 47.9191L37.2751 42.0231L38.5125 40.7857L44.4084 46.6817L43.1709 47.9191Z" fill="black"/>
</g>
<defs>
<clipPath id="clip0_597_151">
<rect width="50" height="50" fill="white"/>
</clipPath>
</defs>
</svg>
