<svg width="568" height="438" viewBox="0 0 568 438" fill="none" xmlns="http://www.w3.org/2000/svg">
<path d="M541.079 13.8633H420.04L394.766 56.9023L172.769 55.536L150.911 13.8633H26.7298C20.992 13.8633 16.3472 18.5088 16.3472 24.2473V417.479C16.3472 423.218 20.992 427.863 26.7298 427.863H541.079C546.817 427.863 551.462 423.218 551.462 417.479V24.2473C551.462 18.5088 546.817 13.8633 541.079 13.8633Z" fill="black" fill-opacity="0.8"/>
<g filter="url(#filter0_d_609_600)">
<path d="M557.61 134.925C557.61 132.056 555.97 129.46 553.101 127.684L551.735 126.864V20.7008C551.735 15.2355 547.364 10.8633 541.899 10.8633H418.264C411.297 10.8633 405.012 28.7621 402.553 35.3204L398.318 44.6114C396.816 48.0272 393.4 50.2133 389.575 50.2133H178.781C175.092 50.2133 171.677 48.0272 170.037 44.6114L165.802 35.3204C163.343 28.7621 157.196 10.8633 150.228 10.8633H26.73C21.2654 10.8633 16.8938 15.2355 16.8938 20.7008V127L15.5277 127.82C12.5222 129.46 10.8828 132.192 10.8828 134.925V187.802C10.8828 190.671 12.5222 193.267 15.3911 195.043L16.7572 195.863V416.796C16.7572 417.069 16.7572 417.206 16.7572 417.479C16.7572 417.753 16.7572 417.889 16.7572 418.162C16.7572 423.628 21.1288 428 26.5934 428C26.8666 428 27.0032 428 27.2764 428C27.5496 428 27.6863 428 27.9595 428H178.507H391.215H542.172C547.637 428 552.009 423.628 552.009 418.162V195.863L553.375 195.043C556.243 193.267 557.883 190.671 557.883 187.802L557.61 134.925ZM545.041 122.765V199.962V408.735C544.085 408.462 543.129 408.325 542.036 408.325C536.571 408.325 532.2 412.697 532.2 418.162C532.2 419.255 532.336 420.212 532.609 421.168H386.843L386.023 419.802C384.247 416.933 381.652 415.293 378.783 415.293H190.666C187.797 415.293 185.202 416.933 183.426 419.802L182.606 421.168H35.8831C36.1563 420.212 36.2929 419.255 36.2929 418.162C36.2929 412.697 31.9213 408.325 26.4567 408.325C25.3638 408.325 24.4075 408.462 23.4512 408.735V29.9917C24.4075 30.265 25.3638 30.4016 26.4567 30.4016C31.9213 30.4016 36.2929 26.0294 36.2929 20.5641C36.2929 19.4711 36.1563 18.5147 35.8831 17.5582H150.228C154.327 17.5582 158.015 33.8174 159.518 37.6431L159.655 37.9164L159.791 38.1897L164.026 47.4806C166.622 53.3558 172.496 57.0449 178.917 57.0449H389.848C396.269 57.0449 402.144 53.3558 404.739 47.4806L408.974 38.1897L409.111 37.9164L409.247 37.6431C410.75 33.8174 414.439 17.5582 418.537 17.5582H532.746C532.473 18.5147 532.336 19.4711 532.336 20.5641C532.336 26.0294 536.708 30.4016 542.172 30.4016C543.265 30.4016 544.222 30.265 545.178 29.9917V122.765H545.041Z" fill="#3FEAD7"/>
</g>
<defs>
<filter id="filter0_d_609_600" x="0.882812" y="0.863281" width="567" height="437.137" filterUnits="userSpaceOnUse" color-interpolation-filters="sRGB">
<feFlood flood-opacity="0" result="BackgroundImageFix"/>
<feColorMatrix in="SourceAlpha" type="matrix" values="0 0 0 0 0 0 0 0 0 0 0 0 0 0 0 0 0 0 127 0" result="hardAlpha"/>
<feOffset/>
<feGaussianBlur stdDeviation="5"/>
<feComposite in2="hardAlpha" operator="out"/>
<feColorMatrix type="matrix" values="0 0 0 0 0.247059 0 0 0 0 0.917647 0 0 0 0 0.843137 0 0 0 1 0"/>
<feBlend mode="normal" in2="BackgroundImageFix" result="effect1_dropShadow_609_600"/>
<feBlend mode="normal" in="SourceGraphic" in2="effect1_dropShadow_609_600" result="shape"/>
</filter>
</defs>
</svg>
