<svg width="409" height="36" viewBox="0 0 409 36" fill="none" xmlns="http://www.w3.org/2000/svg">
<g filter="url(#filter0_d_628_592)">
<path d="M13 6H12V5H13V6ZM403 6V5H404V6H403ZM13.7071 30.2071C13.3166 30.5976 12.6834 30.5976 12.2929 30.2071L5.92893 23.8431C5.53841 23.4526 5.53841 22.8195 5.92893 22.4289C6.31946 22.0384 6.95262 22.0384 7.34315 22.4289L13 28.0858L18.6569 22.4289C19.0474 22.0384 19.6805 22.0384 20.0711 22.4289C20.4616 22.8195 20.4616 23.4526 20.0711 23.8431L13.7071 30.2071ZM13 5L403 5V7L13 7V5ZM404 6V29.5H402V6H404ZM14 6V29.5L12 29.5V6H14Z" fill="#FF9900"/>
</g>
<defs>
<filter id="filter0_d_628_592" x="0.635986" y="0" width="408.364" height="35.5" filterUnits="userSpaceOnUse" color-interpolation-filters="sRGB">
<feFlood flood-opacity="0" result="BackgroundImageFix"/>
<feColorMatrix in="SourceAlpha" type="matrix" values="0 0 0 0 0 0 0 0 0 0 0 0 0 0 0 0 0 0 127 0" result="hardAlpha"/>
<feOffset/>
<feGaussianBlur stdDeviation="2.5"/>
<feComposite in2="hardAlpha" operator="out"/>
<feColorMatrix type="matrix" values="0 0 0 0 1 0 0 0 0 0.6 0 0 0 0 0 0 0 0 1 0"/>
<feBlend mode="normal" in2="BackgroundImageFix" result="effect1_dropShadow_628_592"/>
<feBlend mode="normal" in="SourceGraphic" in2="effect1_dropShadow_628_592" result="shape"/>
</filter>
</defs>
</svg>
