<svg width="409" height="62" viewBox="0 0 409 62" fill="none" xmlns="http://www.w3.org/2000/svg">
<g filter="url(#filter0_d_597_425)">
<path d="M13 6H12V5H13V6ZM403 6V5H404V6H403ZM13.7071 56.7071C13.3166 57.0976 12.6834 57.0976 12.2929 56.7071L5.92893 50.3431C5.53841 49.9526 5.53841 49.3195 5.92893 48.9289C6.31946 48.5384 6.95262 48.5384 7.34315 48.9289L13 54.5858L18.6569 48.9289C19.0474 48.5384 19.6805 48.5384 20.0711 48.9289C20.4616 49.3195 20.4616 49.9526 20.0711 50.3431L13.7071 56.7071ZM13 5L403 5V7L13 7V5ZM404 6V56H402V6H404ZM14 6L14 56H12L12 6H14Z" fill="#FF9900"/>
</g>
<defs>
<filter id="filter0_d_597_425" x="0.635986" y="0" width="408.364" height="62" filterUnits="userSpaceOnUse" color-interpolation-filters="sRGB">
<feFlood flood-opacity="0" result="BackgroundImageFix"/>
<feColorMatrix in="SourceAlpha" type="matrix" values="0 0 0 0 0 0 0 0 0 0 0 0 0 0 0 0 0 0 127 0" result="hardAlpha"/>
<feOffset/>
<feGaussianBlur stdDeviation="2.5"/>
<feComposite in2="hardAlpha" operator="out"/>
<feColorMatrix type="matrix" values="0 0 0 0 1 0 0 0 0 0.6 0 0 0 0 0 0 0 0 1 0"/>
<feBlend mode="normal" in2="BackgroundImageFix" result="effect1_dropShadow_597_425"/>
<feBlend mode="normal" in="SourceGraphic" in2="effect1_dropShadow_597_425" result="shape"/>
</filter>
</defs>
</svg>
