<svg width="560" height="435" viewBox="0 0 560 435" fill="none" xmlns="http://www.w3.org/2000/svg">
<mask id="mask0_609_606" style="mask-type:alpha" maskUnits="userSpaceOnUse" x="0" y="0" width="560" height="435">
<rect width="560" height="435" fill="black"/>
</mask>
<g mask="url(#mask0_609_606)">
<path d="M538.196 12H417.157L391.883 55.039L169.887 53.6727L148.029 12H23.847C18.1092 12 13.4644 16.6455 13.4644 22.384V415.616C13.4644 421.355 18.1092 426 23.847 426H538.196C543.934 426 548.579 421.355 548.579 415.616V22.384C548.579 16.6455 543.934 12 538.196 12Z" fill="black" fill-opacity="0.8"/>
<g filter="url(#filter0_d_609_606)">
<path d="M554.727 133.062C554.727 130.192 553.087 127.596 550.219 125.82L548.852 125V18.8375C548.852 13.3722 544.481 9 539.016 9H415.381C408.414 9 402.13 26.8988 399.671 33.4571L395.436 42.7481C393.933 46.1639 390.518 48.35 386.692 48.35H175.898C172.209 48.35 168.794 46.1639 167.155 42.7481L162.92 33.4571C160.461 26.8988 154.313 9 147.346 9H23.8472C18.3826 9 14.011 13.3722 14.011 18.8375V125.137L12.6449 125.957C9.63936 127.596 8 130.329 8 133.062V185.938C8 188.808 9.63936 191.404 12.5082 193.18L13.8744 194V414.933C13.8744 415.206 13.8744 415.343 13.8744 415.616C13.8744 415.889 13.8744 416.026 13.8744 416.299C13.8744 421.764 18.246 426.137 23.7105 426.137C23.9838 426.137 24.1204 426.137 24.3936 426.137C24.6668 426.137 24.8034 426.137 25.0767 426.137H175.625H388.332H539.29C544.754 426.137 549.126 421.764 549.126 416.299V194L550.492 193.18C553.361 191.404 555 188.808 555 185.938L554.727 133.062ZM542.158 120.902V198.098V406.872C541.202 406.598 540.246 406.462 539.153 406.462C533.688 406.462 529.317 410.834 529.317 416.299C529.317 417.392 529.453 418.349 529.727 419.305H383.96L383.14 417.939C381.364 415.069 378.769 413.43 375.9 413.43H187.783C184.914 413.43 182.319 415.069 180.543 417.939L179.723 419.305H33.0003C33.2735 418.349 33.4101 417.392 33.4101 416.299C33.4101 410.834 29.0385 406.462 23.5739 406.462C22.481 406.462 21.5247 406.598 20.5684 406.872V28.1285C21.5247 28.4017 22.481 28.5384 23.5739 28.5384C29.0385 28.5384 33.4101 24.1661 33.4101 18.7009C33.4101 17.6078 33.2735 16.6514 33.0003 15.695H147.346C151.444 15.695 155.133 31.9542 156.635 35.7798L156.772 36.0531L156.909 36.3264L161.144 45.6173C163.739 51.4925 169.614 55.1816 176.034 55.1816H386.966C393.386 55.1816 399.261 51.4925 401.856 45.6173L406.091 36.3264L406.228 36.0531L406.365 35.7798C407.867 31.9542 411.556 15.695 415.654 15.695H529.863C529.59 16.6514 529.453 17.6078 529.453 18.7009C529.453 24.1661 533.825 28.5384 539.29 28.5384C540.382 28.5384 541.339 28.4017 542.295 28.1285V120.902H542.158Z" fill="#3FEAD7"/>
</g>
</g>
<defs>
<filter id="filter0_d_609_606" x="-2" y="-1" width="567" height="437.137" filterUnits="userSpaceOnUse" color-interpolation-filters="sRGB">
<feFlood flood-opacity="0" result="BackgroundImageFix"/>
<feColorMatrix in="SourceAlpha" type="matrix" values="0 0 0 0 0 0 0 0 0 0 0 0 0 0 0 0 0 0 127 0" result="hardAlpha"/>
<feOffset/>
<feGaussianBlur stdDeviation="5"/>
<feComposite in2="hardAlpha" operator="out"/>
<feColorMatrix type="matrix" values="0 0 0 0 0.247059 0 0 0 0 0.917647 0 0 0 0 0.843137 0 0 0 1 0"/>
<feBlend mode="normal" in2="BackgroundImageFix" result="effect1_dropShadow_609_606"/>
<feBlend mode="normal" in="SourceGraphic" in2="effect1_dropShadow_609_606" result="shape"/>
</filter>
</defs>
</svg>
