<svg width="409" height="51" viewBox="0 0 409 51" fill="none" xmlns="http://www.w3.org/2000/svg">
<g filter="url(#filter0_d_597_468)">
<path d="M13 44.8633H12V45.8633H13V44.8633ZM403 44.8633V45.8633H404V44.8633H403ZM13.7071 6.15617C13.3166 5.76565 12.6834 5.76565 12.2929 6.15617L5.92893 12.5201C5.53841 12.9107 5.53841 13.5438 5.92893 13.9343C6.31946 14.3249 6.95262 14.3249 7.34315 13.9343L13 8.27749L18.6569 13.9343C19.0474 14.3249 19.6805 14.3249 20.0711 13.9343C20.4616 13.5438 20.4616 12.9107 20.0711 12.5201L13.7071 6.15617ZM13 45.8633L403 45.8633V43.8633L13 43.8633V45.8633ZM404 44.8633V6.86328H402V44.8633H404ZM14 44.8633L14 6.86328H12L12 44.8633H14Z" fill="#FF9900"/>
</g>
<defs>
<filter id="filter0_d_597_468" x="0.63623" y="0.863281" width="408.364" height="50" filterUnits="userSpaceOnUse" color-interpolation-filters="sRGB">
<feFlood flood-opacity="0" result="BackgroundImageFix"/>
<feColorMatrix in="SourceAlpha" type="matrix" values="0 0 0 0 0 0 0 0 0 0 0 0 0 0 0 0 0 0 127 0" result="hardAlpha"/>
<feOffset/>
<feGaussianBlur stdDeviation="2.5"/>
<feComposite in2="hardAlpha" operator="out"/>
<feColorMatrix type="matrix" values="0 0 0 0 1 0 0 0 0 0.6 0 0 0 0 0 0 0 0 1 0"/>
<feBlend mode="normal" in2="BackgroundImageFix" result="effect1_dropShadow_597_468"/>
<feBlend mode="normal" in="SourceGraphic" in2="effect1_dropShadow_597_468" result="shape"/>
</filter>
</defs>
</svg>
