<svg width="274" height="78" viewBox="0 0 274 78" fill="none" xmlns="http://www.w3.org/2000/svg">
<path d="M232.626 78.0002C254.303 78.1163 271.902 60.8216 272.135 39.3484C272.252 17.7591 254.886 0.23236 233.325 0.000217448C218.291 -0.115854 205.238 8.24129 198.594 20.4288C204.422 13.6966 213.279 9.51807 223.302 9.51807C240.668 9.63415 254.653 22.8663 254.537 39.1163C254.42 55.3663 240.201 68.3663 222.836 68.2502C212.93 68.1341 204.072 63.7234 198.361 56.9913C204.655 69.4109 217.591 77.8841 232.626 78.0002Z" fill="url(#paint0_linear_576_460)"/>
<path d="M0.582525 49.3306L14.5681 28.3217C15.2673 27.3931 16.1997 27.161 17.3652 27.0449C17.7148 27.0449 18.0644 27.0449 18.4141 27.0449C18.4141 27.0449 18.5306 27.0449 18.6472 27.0449C18.7637 27.0449 18.8803 27.0449 19.1134 27.0449C19.5795 27.0449 20.1623 27.0449 20.8616 27.0449C20.8616 27.0449 22.027 27.0449 22.4932 28.3217L29.3694 49.3306C29.486 49.6789 29.3694 50.1431 29.1363 50.4914C28.9032 50.8396 28.5536 51.0717 28.204 51.0717H22.7263C22.3767 51.0717 22.027 50.8396 21.9105 50.4914L21.3277 48.5181H9.67312L9.20694 49.2146L8.27457 50.4914C8.04148 50.8396 7.57529 51.0717 7.10911 51.0717H1.2818C0.932163 51.0717 0.582525 50.8396 0.349433 50.4914C0.232886 50.1431 0.349433 49.6789 0.582525 49.3306ZM13.4026 42.7146H19.463L17.4817 36.4467L13.4026 42.7146Z" fill="white"/>
<path d="M32.5163 51.0718C31.817 51.0718 31.2343 50.4915 31.3509 49.7951L35.1969 28.4379C35.3134 27.7415 36.0127 27.1611 36.8285 27.1611H53.9608C57.4572 27.1611 59.7881 29.9468 59.2054 33.429L58.273 38.7683C57.8068 41.0897 56.0586 43.179 53.9608 44.2236C53.8443 44.3397 53.7277 44.4558 53.8443 44.5718L56.6414 49.4468C56.991 50.1433 56.5248 50.9558 55.8256 50.9558C53.4946 50.9558 51.9795 51.0718 51.0472 51.0718C49.4155 51.0718 48.8328 51.0718 48.5997 50.3754L46.0357 45.3843C45.9191 45.1522 45.686 45.0361 45.4529 45.0361H39.9753C39.8587 45.0361 39.6256 45.1522 39.6256 45.2683L38.8098 49.679C38.4602 50.3754 37.7609 51.0718 37.0616 51.0718H32.5163ZM40.558 38.7683C40.558 38.8843 40.6746 39.0004 40.7911 39.0004H49.6486C50.3479 39.0004 50.9306 38.4201 51.0472 37.8397L51.7464 34.2415C51.863 33.5451 51.3968 33.0808 50.6975 33.0808H41.9566C41.84 33.0808 41.6069 33.1968 41.6069 33.3129L40.558 38.7683Z" fill="white"/>
<path d="M88.6912 28.3217L85.661 44.8038C85.0783 48.286 81.6984 51.0717 78.0855 51.0717H77.3862H65.6151C62.1187 51.0717 59.7878 48.286 60.3705 44.8038L63.4007 28.4378C63.5172 27.7414 64.2165 27.161 65.0323 27.161H69.3445C70.0438 27.161 70.6266 27.7414 70.51 28.4378L67.7129 43.9914C67.5964 44.4556 67.946 44.8038 68.4122 44.8038H77.8524C78.3186 44.8038 78.7848 44.4556 78.7848 43.9914L81.5819 28.3217C81.6984 27.6253 82.3977 27.0449 83.2135 27.0449H87.6423C88.3416 27.0449 88.8077 27.6253 88.6912 28.3217Z" fill="white"/>
<path d="M114.565 28.4381L113.982 31.9202C113.865 32.6166 113.166 33.197 112.35 33.197H105.707C105.591 33.197 105.358 33.3131 105.358 33.4291L102.444 49.6791C102.327 50.3756 101.628 50.9559 100.812 50.9559H96.2669C95.5676 50.9559 94.9849 50.3756 95.1015 49.6791L98.0151 33.4291C98.0151 33.3131 97.8986 33.197 97.782 33.197H91.1389C90.4396 33.197 89.8569 32.6166 89.9734 31.9202L90.5562 28.4381C90.6727 27.7416 91.372 27.1613 92.1878 27.1613H113.283C114.098 27.0452 114.681 27.6256 114.565 28.4381Z" fill="white"/>
<path d="M112.817 49.6789L116.663 28.3217C116.779 27.6253 117.478 27.0449 118.294 27.0449H138.573C139.039 27.0449 139.273 27.3931 139.273 27.8574L138.457 32.3842C138.34 32.8485 137.991 33.1967 137.524 33.1967H123.422C123.306 33.1967 123.073 33.3128 123.073 33.4289L122.606 35.8664C122.606 35.9824 122.723 36.0985 122.84 36.0985H134.144C134.611 36.0985 134.844 36.4467 134.844 36.911L134.144 41.0896C134.028 41.5539 133.678 41.9021 133.212 41.9021H121.907C121.791 41.9021 121.558 42.0181 121.558 42.1342L121.091 44.4556C121.091 44.5717 121.208 44.6878 121.324 44.6878H135.426C135.893 44.6878 136.126 45.036 136.126 45.5003L135.31 50.1431C135.193 50.6074 134.844 50.9556 134.378 50.9556H113.982C113.166 51.0717 112.7 50.3753 112.817 49.6789Z" fill="white"/>
<path d="M149.179 27.0449C149.762 27.0449 150.111 27.3931 150.228 27.8574L154.307 42.7146C154.423 42.9467 154.773 43.0628 154.89 42.8306L164.913 27.8574C165.262 27.3931 165.728 27.0449 166.311 27.0449H171.556C172.255 27.0449 172.838 27.6253 172.721 28.3217L168.875 49.5628C168.759 50.2592 168.059 50.8396 167.244 50.8396H163.164C162.465 50.8396 161.882 50.2592 161.999 49.5628L163.514 41.0896L157.454 50.1431C157.104 50.6074 156.638 50.9556 156.055 50.9556H150.577C149.995 50.9556 149.645 50.6074 149.529 50.1431L146.731 41.0896L145.216 49.5628C145.1 50.2592 144.401 50.8396 143.585 50.8396H139.506C138.806 50.8396 138.224 50.2592 138.34 49.5628L142.186 28.3217C142.303 27.6253 143.002 27.0449 143.818 27.0449H149.179Z" fill="white"/>
<path d="M182.628 27.0449C183.327 27.0449 183.91 27.6253 183.793 28.3217L179.947 49.5628C179.83 50.2592 179.131 50.8396 178.315 50.8396H173.654C172.954 50.8396 172.372 50.2592 172.488 49.5628L176.334 28.3217C176.451 27.6253 177.15 27.0449 177.966 27.0449H182.628Z" fill="white"/>
<path d="M184.842 51.0718C184.143 51.0718 183.56 50.4915 183.677 49.7951L184.376 46.1968C184.492 45.5004 185.192 44.9201 186.007 44.9201H201.158C201.625 44.9201 202.091 44.5718 202.091 44.1076L202.324 42.9468C202.44 42.4826 202.091 42.1343 201.625 42.1343H190.786C187.289 42.1343 184.959 39.3486 185.541 35.8665L186.007 33.429C186.59 29.9468 189.97 27.1611 193.583 27.1611H209.666C210.366 27.1611 210.948 27.7415 210.832 28.4379L210.249 31.9201C210.133 32.6165 209.433 33.1968 208.617 33.1968H193.933C193.466 33.1968 193 33.5451 193 34.0093L192.767 35.5183C192.651 35.9826 193 36.3308 193.466 36.3308H204.305C207.802 36.3308 210.133 39.1165 209.55 42.5986L209.2 44.804C208.617 48.2861 205.238 51.0718 201.625 51.0718H200.925H184.842Z" fill="white"/>
<path d="M239.969 28.3221L236.938 44.8042C236.356 48.2863 232.976 51.0721 229.363 51.0721H228.664H216.892C213.396 51.0721 211.065 48.2863 211.648 44.8042L214.678 28.4381C214.795 27.7417 215.494 27.1613 216.31 27.1613H220.622C221.321 27.1613 221.904 27.7417 221.787 28.4381L218.99 43.9917C218.874 44.456 219.223 44.8042 219.69 44.8042H229.13C229.596 44.8042 230.062 44.456 230.062 43.9917L232.859 28.4381C232.976 27.7417 233.675 27.1613 234.491 27.1613H238.92C239.619 27.0453 240.085 27.6256 239.969 28.3221Z" fill="white"/>
<path d="M202.324 77.9997C202.324 77.7676 202.208 77.6515 202.208 77.4194C202.091 76.9551 201.974 76.4908 201.741 76.0265C201.508 75.4461 200.926 74.9819 200.226 74.7497C199.644 74.5176 199.061 74.4015 198.362 74.2854C198.245 74.2854 198.245 74.2854 198.128 74.2854C198.362 74.2854 198.478 74.1694 198.711 74.1694C199.177 74.0533 199.644 73.9372 200.11 73.8211C200.926 73.589 201.392 73.0086 201.741 72.3122C201.974 71.7319 202.091 71.1515 202.208 70.5711C202.208 70.5711 202.208 70.5711 202.208 70.4551C202.324 70.5711 202.324 70.6872 202.324 70.8033C202.441 71.3836 202.557 71.964 202.79 72.4283C203.023 73.1247 203.606 73.4729 204.305 73.8211C204.888 74.0533 205.471 74.1694 206.17 74.2854C206.287 74.2854 206.287 74.2854 206.403 74.4015C206.287 74.4015 206.287 74.4015 206.17 74.5176C205.587 74.6336 205.121 74.7497 204.538 74.8658C203.606 75.0979 203.023 75.6783 202.79 76.4908C202.674 76.9551 202.557 77.4194 202.441 77.8836C202.324 77.7676 202.324 77.8836 202.324 77.9997Z" fill="url(#paint1_linear_576_460)"/>
<path d="M268.755 9.63407C268.755 9.40193 268.639 9.16978 268.639 8.93764C268.522 8.35728 268.406 7.66085 268.056 7.0805C267.706 6.268 267.124 5.80371 266.191 5.4555C265.492 5.22335 264.676 5.10728 263.86 4.87514C263.744 4.87514 263.627 4.87514 263.511 4.87514C263.744 4.87514 263.977 4.75907 264.21 4.75907C264.793 4.643 265.375 4.52693 265.958 4.29478C267.007 3.94657 267.59 3.36621 267.939 2.43764C268.173 1.74121 268.406 1.04478 268.522 0.232282C268.522 0.232282 268.522 0.232282 268.522 0.116211C268.639 0.232282 268.639 0.348354 268.639 0.464425C268.755 1.16085 268.988 1.85728 269.221 2.55371C269.571 3.36621 270.154 3.94657 271.086 4.29478C271.786 4.52693 272.601 4.643 273.417 4.87514C273.534 4.87514 273.65 4.87514 273.65 4.99121C273.534 5.10728 273.417 5.10728 273.417 5.10728C272.718 5.22335 272.019 5.33943 271.436 5.57157C270.27 5.91978 269.571 6.61621 269.221 7.66085C268.988 8.24121 268.872 8.82157 268.755 9.40193C268.872 9.40193 268.872 9.518 268.755 9.63407Z" fill="url(#paint2_linear_576_460)"/>
<path d="M12.4704 73.2418L13.7524 66.8578H0L0.116546 65.5811H18.6474L17.1323 73.2418H12.4704ZM3.26329 78.0007L6.17695 68.4828H10.9553L8.04168 78.0007H3.26329Z" fill="white"/>
<path d="M20.8618 78.0003L22.9596 66.7413H27.3884L25.2906 78.0003H20.8618ZM29.4862 78.0003L30.5351 65.2324H35.3135L34.2646 76.7235H39.7423L39.6257 78.0003H29.4862Z" fill="white"/>
<path d="M43.1221 70.804L43.2386 69.5272H62.2356L62.0025 70.804H55.5925L53.145 77.8843H48.3666L50.8141 70.804H43.1221ZM43.8213 66.6254L43.9379 65.3486H62.2356L62.1191 66.6254H43.8213Z" fill="white"/>
<path d="M64.916 77.3043L65.1491 74.9828L82.9807 75.6793L82.7476 78.0007L64.916 77.3043ZM66.198 66.8578L66.3146 65.5811L83.4468 66.2775L83.3303 67.5543L66.198 66.8578ZM66.4311 71.2686L66.5477 69.9918L82.2814 70.6882L82.1648 71.965L66.4311 71.2686Z" fill="white"/>
<path d="M86.2441 78.0007L98.8311 66.8578H87.2931L87.4096 65.5811H105.707L98.7146 71.7328L104.425 78.0007H99.2973L95.9175 74.2864L91.7218 78.0007H86.2441Z" fill="white"/>
<defs>
<linearGradient id="paint0_linear_576_460" x1="200.5" y1="88" x2="284.5" y2="-2.5" gradientUnits="userSpaceOnUse">
<stop stop-color="#FF00BE"/>
<stop offset="0.295" stop-color="#CA58FF"/>
<stop offset="0.61" stop-color="#3AA1FF"/>
<stop offset="0.89" stop-color="#3FEAD7"/>
</linearGradient>
<linearGradient id="paint1_linear_576_460" x1="198.128" y1="74.2274" x2="206.403" y2="74.2274" gradientUnits="userSpaceOnUse">
<stop stop-color="#FF00BE"/>
<stop offset="0.295" stop-color="#CA58FF"/>
<stop offset="0.61" stop-color="#3AA1FF"/>
<stop offset="0.89" stop-color="#3FEAD7"/>
</linearGradient>
<linearGradient id="paint2_linear_576_460" x1="263.511" y1="4.87514" x2="273.65" y2="4.87514" gradientUnits="userSpaceOnUse">
<stop stop-color="#FF00BE"/>
<stop offset="0.295" stop-color="#CA58FF"/>
<stop offset="0.61" stop-color="#3AA1FF"/>
<stop offset="0.89" stop-color="#3FEAD7"/>
</linearGradient>
</defs>
</svg>
