<svg width="399" height="41" viewBox="0 0 399 41" fill="none" xmlns="http://www.w3.org/2000/svg">
<path d="M8 39.8633H7V40.8633H8V39.8633ZM398 39.8633V40.8633H399V39.8633H398ZM8.70711 1.15617C8.31658 0.76565 7.68342 0.76565 7.29289 1.15617L0.928933 7.52014C0.538408 7.91066 0.538408 8.54382 0.928933 8.93435C1.31946 9.32487 1.95262 9.32487 2.34315 8.93435L8 3.27749L13.6569 8.93435C14.0474 9.32487 14.6805 9.32487 15.0711 8.93435C15.4616 8.54382 15.4616 7.91066 15.0711 7.52014L8.70711 1.15617ZM8 40.8633L398 40.8633V38.8633L8 38.8633V40.8633ZM399 39.8633V1.86328H397V39.8633H399ZM9 39.8633L9 1.86328H7L7 39.8633H9Z" fill="#FF9900"/>
</svg>
