<svg width="50" height="50" viewBox="0 0 50 50" fill="none" xmlns="http://www.w3.org/2000/svg">
<path d="M40.625 10.9375V31.25H24.2188C23.7812 31.25 23.4375 30.9062 23.4375 30.4688C23.4375 30.0312 23.7812 29.6875 24.2188 29.6875H39.0625V12.5H10.9375V29.6875H13.2812C13.7188 29.6875 14.0625 30.0312 14.0625 30.4688C14.0625 30.9062 13.7188 31.25 13.2812 31.25H9.375V10.9375H40.625Z" fill="white"/>
<path d="M39.0625 12.5H21.875V29.6875H39.0625V12.5Z" fill="#FFD561"/>
<path d="M20.3125 12.5H18.75V29.6875H20.3125V12.5Z" fill="#FFD561"/>
<path d="M17.1875 12.5H15.625V29.6875H17.1875V12.5Z" fill="#FFD561"/>
<path d="M48.4375 43.75H1.5625V45.3125H48.4375V43.75Z" fill="#FFD561"/>
<path d="M35.9375 8.59375C35.9375 9.03125 35.5938 9.375 35.1562 9.375H22.6562C22.2188 9.375 21.875 9.03125 21.875 8.59375C21.875 8.15625 22.2188 7.8125 22.6562 7.8125H35.1562C35.5938 7.8125 35.9375 8.15625 35.9375 8.59375Z" fill="white"/>
<path d="M48.2189 41.3906L43.5314 33.5781C43.4361 33.4203 43.3111 33.2812 43.172 33.1719C43.5158 32.7188 43.7502 32.1094 43.7502 31.25V10.9375C43.7502 10.9375 43.7502 7.8125 40.6252 7.8125C37.5002 7.8125 37.5002 7.8125 37.5002 7.8125H38.2814C37.8439 7.8125 37.5002 8.15625 37.5002 8.59375C37.5002 9.03125 37.8439 9.375 38.2814 9.375H40.6252C41.8908 9.375 42.172 10.2344 42.1877 10.9375V31.25C42.1877 32.5156 41.3283 32.7969 40.6252 32.8125H9.37516C8.10954 32.8125 7.82829 31.9531 7.81266 31.25V10.9375C7.81266 9.67188 8.67204 9.39062 9.37516 9.375H35.1564C35.5924 9.375 35.9377 9.03125 35.9377 8.59375C35.9377 8.15625 35.5924 7.8125 35.1564 7.8125H9.37516C9.37516 7.8125 6.25016 7.8125 6.25016 10.9375V31.25C6.25016 31.25 6.25016 32.2812 6.84391 33.1562C6.70329 33.2656 6.56266 33.4062 6.46891 33.5797L1.78141 41.3922C1.50016 41.8609 1.48454 42.4688 1.76579 42.9547C2.04704 43.4531 2.56266 43.75 3.12516 43.75H46.8752C47.4377 43.75 47.9533 43.4531 48.2345 42.9531C48.5158 42.4688 48.5002 41.8594 48.2189 41.3906ZM3.12516 42.1875L7.81266 34.375H42.1877L46.8752 42.1875H3.12516Z" fill="white"/>
<path d="M21.875 30.4688C21.875 30.0375 21.525 29.6875 21.0938 29.6875H16.4062C15.975 29.6875 15.625 30.0375 15.625 30.4688C15.625 30.9 15.975 31.25 16.4062 31.25H21.0938C21.525 31.25 21.875 30.9 21.875 30.4688Z" fill="white"/>
<path d="M29.6875 39.8438C29.6875 39.4125 29.3375 39.0625 28.9062 39.0625H8.59375C8.1625 39.0625 7.8125 39.4125 7.8125 39.8438C7.8125 40.275 8.1625 40.625 8.59375 40.625H28.9062C29.3375 40.625 29.6875 40.275 29.6875 39.8438Z" fill="white"/>
<path d="M35.9375 39.8438C35.9375 39.4125 35.5875 39.0625 35.1562 39.0625H33.5938C33.1625 39.0625 32.8125 39.4125 32.8125 39.8438C32.8125 40.275 33.1625 40.625 33.5938 40.625H35.1562C35.5875 40.625 35.9375 40.275 35.9375 39.8438Z" fill="white"/>
<path d="M42.1875 39.8438C42.1875 39.4125 41.8375 39.0625 41.4062 39.0625H39.8438C39.4125 39.0625 39.0625 39.4125 39.0625 39.8438C39.0625 40.275 39.4125 40.625 39.8438 40.625H41.4062C41.8375 40.625 42.1875 40.275 42.1875 39.8438Z" fill="white"/>
<path d="M39.0625 36.7188C39.0625 36.2875 38.7125 35.9375 38.2812 35.9375H24.2188C23.7875 35.9375 23.4375 36.2875 23.4375 36.7188C23.4375 37.15 23.7875 37.5 24.2188 37.5H38.2812C38.7125 37.5 39.0625 37.15 39.0625 36.7188Z" fill="white"/>
<path d="M20.3125 36.7188C20.3125 36.2875 19.9625 35.9375 19.5312 35.9375H17.9688C17.5375 35.9375 17.1875 36.2875 17.1875 36.7188C17.1875 37.15 17.5375 37.5 17.9688 37.5H19.5312C19.9625 37.5 20.3125 37.15 20.3125 36.7188Z" fill="white"/>
<path d="M14.0625 36.7188C14.0625 36.2875 13.7125 35.9375 13.2812 35.9375H11.7188C11.2875 35.9375 10.9375 36.2875 10.9375 36.7188C10.9375 37.15 11.2875 37.5 11.7188 37.5H13.2812C13.7125 37.5 14.0625 37.15 14.0625 36.7188Z" fill="white"/>
</svg>
