<svg width="50" height="50" viewBox="0 0 50 50" fill="none" xmlns="http://www.w3.org/2000/svg">
<g clip-path="url(#clip0_597_200)">
<mask id="mask0_597_200" style="mask-type:luminance" maskUnits="userSpaceOnUse" x="0" y="0" width="50" height="50">
<path d="M50 0H0V50H50V0Z" fill="white"/>
</mask>
<g mask="url(#mask0_597_200)">
<path d="M43.708 9.375L45.2705 26.5625H29.6455V7.8125H42.1455C42.9736 7.8125 43.5674 8.23437 43.708 9.375Z" fill="#FFE6EA"/>
<path d="M39.0205 39.0625C41.6143 39.0625 43.708 41.1562 43.708 43.75C43.708 46.3438 41.6143 48.4375 39.0205 48.4375C36.4268 48.4375 34.333 46.3438 34.333 43.75C34.333 41.1562 36.4268 39.0625 39.0205 39.0625ZM12.458 39.0625C15.0518 39.0625 17.1455 41.1562 17.1455 43.75C17.1455 46.3438 15.0518 48.4375 12.458 48.4375C9.86426 48.4375 7.77051 46.3438 7.77051 43.75C7.77051 43.2656 7.84863 42.7813 7.98926 42.3438C8.58301 40.4375 10.3486 39.0625 12.458 39.0625Z" fill="#668077"/>
<path d="M1.6456 4.6875L3.98935 18.75L6.05185 31.25L7.8956 42.3125L7.98935 42.3438C8.5831 40.4375 10.3487 39.0625 12.4581 39.0625C15.0519 39.0625 17.1456 41.1562 17.1456 43.75H34.333C34.333 41.1562 36.4267 39.0625 39.0205 39.0625C41.6142 39.0625 43.708 41.1562 43.708 43.75H48.3955V29.6875C48.3955 28.125 46.833 26.5625 45.2705 26.5625H29.6456V3.125C29.6456 2.3125 28.88 1.5625 28.0831 1.5625H4.6456C2.55185 1.5625 1.2081 2.09375 1.6456 4.6875Z" fill="#FFC44D"/>
<path d="M43.75 43.75C43.75 41.1625 41.65 39.0625 39.0625 39.0625C36.475 39.0625 34.375 41.1625 34.375 43.75C34.375 46.3375 36.475 48.4375 39.0625 48.4375C41.65 48.4375 43.75 46.3375 43.75 43.75ZM43.75 43.75H48.4375V29.6875C48.4375 28.125 46.875 26.5625 45.3125 26.5625M45.3125 26.5625H34.375M45.3125 26.5625L43.75 9.375C43.6031 8.22813 43.0172 7.8125 42.1875 7.8125H34.375M17.1875 43.75C17.1875 41.1625 15.0875 39.0625 12.5 39.0625C9.9125 39.0625 7.8125 41.1625 7.8125 43.75C7.8125 46.3375 9.9125 48.4375 12.5 48.4375C15.0875 48.4375 17.1875 46.3375 17.1875 43.75ZM17.1875 43.75H29.6875V3.125C29.6875 2.31875 28.9297 1.5625 28.125 1.5625H4.6875C2.5875 1.5625 1.24531 2.1 1.68437 4.6875L3.125 14.0625M12.5 25H3.125M14.0625 31.25H4.6875M10.9375 18.75H1.5625" stroke="black" stroke-width="3" stroke-linecap="round" stroke-linejoin="round"/>
</g>
</g>
<defs>
<clipPath id="clip0_597_200">
<rect width="50" height="50" fill="white"/>
</clipPath>
</defs>
</svg>
